<svg width="24" height="24" viewBox="0 0 24 24" fill="none" xmlns="http://www.w3.org/2000/svg">
<g clip-path="url(#clip0)">
<path d="M23 12.9795H1C0.447998 12.9795 0 12.5315 0 11.9795C0 11.4275 0.447998 10.9795 1 10.9795H23C23.552 10.9795 24 11.4275 24 11.9795C24 12.5315 23.552 12.9795 23 12.9795Z" fill="#474747"/>
<path d="M23.4445 5.33325H11.2223C10.9156 5.33325 10.6667 4.88525 10.6667 4.33325C10.6667 3.78125 10.9156 3.33325 11.2223 3.33325H23.4445C23.7512 3.33325 24.0001 3.78125 24.0001 4.33325C24.0001 4.88525 23.7512 5.33325 23.4445 5.33325Z" fill="#474747"/>
<path d="M23 20.6455H1C0.447998 20.6455 0 20.1975 0 19.6455C0 19.0935 0.447998 18.6455 1 18.6455H23C23.552 18.6455 24 19.0935 24 19.6455C24 20.1975 23.552 20.6455 23 20.6455Z" fill="#474747"/>
</g>
<defs>
<clipPath id="clip0">
<rect width="24" height="24" fill="white"/>
</clipPath>
</defs>
</svg>
