<svg width="142" height="142" viewBox="0 0 142 142" fill="none" xmlns="http://www.w3.org/2000/svg">
<circle cx="75.4708" cy="2.53257" r="2.53257" fill="#263CAB" fill-opacity="0.4"/>
<circle cx="75.4708" cy="11.6498" r="2.53257" fill="#263CAB" fill-opacity="0.4"/>
<circle cx="75.4708" cy="20.7672" r="2.53257" fill="#263CAB" fill-opacity="0.4"/>
<circle cx="75.4708" cy="29.8844" r="2.53257" fill="#263CAB" fill-opacity="0.4"/>
<circle cx="75.4708" cy="39.0016" r="2.53257" fill="#263CAB" fill-opacity="0.4"/>
<circle cx="75.4708" cy="48.119" r="2.53257" fill="#263CAB" fill-opacity="0.4"/>
<circle cx="75.4708" cy="57.2362" r="2.53257" fill="#263CAB" fill-opacity="0.4"/>
<circle cx="75.4708" cy="66.3534" r="2.53257" fill="#263CAB" fill-opacity="0.4"/>
<circle cx="84.5882" cy="2.53257" r="2.53257" fill="#263CAB" fill-opacity="0.4"/>
<circle cx="84.5882" cy="11.6498" r="2.53257" fill="#263CAB" fill-opacity="0.4"/>
<circle cx="84.5882" cy="20.7672" r="2.53257" fill="#263CAB" fill-opacity="0.4"/>
<circle cx="84.5882" cy="29.8844" r="2.53257" fill="#263CAB" fill-opacity="0.4"/>
<circle cx="84.5882" cy="39.0016" r="2.53257" fill="#263CAB" fill-opacity="0.4"/>
<circle cx="84.5882" cy="48.119" r="2.53257" fill="#263CAB" fill-opacity="0.4"/>
<circle cx="84.5882" cy="57.2362" r="2.53257" fill="#263CAB" fill-opacity="0.4"/>
<circle cx="84.5882" cy="66.3534" r="2.53257" fill="#263CAB" fill-opacity="0.4"/>
<circle cx="93.7057" cy="2.53257" r="2.53257" fill="#263CAB" fill-opacity="0.4"/>
<circle cx="93.7057" cy="11.6498" r="2.53257" fill="#263CAB" fill-opacity="0.4"/>
<circle cx="93.7057" cy="20.7672" r="2.53257" fill="#263CAB" fill-opacity="0.4"/>
<circle cx="93.7057" cy="29.8844" r="2.53257" fill="#263CAB" fill-opacity="0.4"/>
<circle cx="93.7057" cy="39.0016" r="2.53257" fill="#263CAB" fill-opacity="0.4"/>
<circle cx="93.7057" cy="48.119" r="2.53257" fill="#263CAB" fill-opacity="0.4"/>
<circle cx="93.7057" cy="57.2362" r="2.53257" fill="#263CAB" fill-opacity="0.4"/>
<circle cx="93.7057" cy="66.3534" r="2.53257" fill="#263CAB" fill-opacity="0.4"/>
<circle cx="102.823" cy="2.53257" r="2.53257" fill="#263CAB" fill-opacity="0.4"/>
<circle cx="102.823" cy="11.6498" r="2.53257" fill="#263CAB" fill-opacity="0.4"/>
<circle cx="102.823" cy="20.7672" r="2.53257" fill="#263CAB" fill-opacity="0.4"/>
<circle cx="102.823" cy="29.8844" r="2.53257" fill="#263CAB" fill-opacity="0.4"/>
<circle cx="102.823" cy="39.0016" r="2.53257" fill="#263CAB" fill-opacity="0.4"/>
<circle cx="102.823" cy="48.119" r="2.53257" fill="#263CAB" fill-opacity="0.4"/>
<circle cx="102.823" cy="57.2362" r="2.53257" fill="#263CAB" fill-opacity="0.4"/>
<circle cx="102.823" cy="66.3534" r="2.53257" fill="#263CAB" fill-opacity="0.4"/>
<circle cx="111.94" cy="2.53257" r="2.53257" fill="#263CAB" fill-opacity="0.4"/>
<circle cx="111.94" cy="11.6498" r="2.53257" fill="#263CAB" fill-opacity="0.4"/>
<circle cx="111.94" cy="20.7672" r="2.53257" fill="#263CAB" fill-opacity="0.4"/>
<circle cx="111.94" cy="29.8844" r="2.53257" fill="#263CAB" fill-opacity="0.4"/>
<circle cx="111.94" cy="39.0016" r="2.53257" fill="#263CAB" fill-opacity="0.4"/>
<circle cx="111.94" cy="48.119" r="2.53257" fill="#263CAB" fill-opacity="0.4"/>
<circle cx="111.94" cy="57.2362" r="2.53257" fill="#263CAB" fill-opacity="0.4"/>
<circle cx="111.94" cy="66.3534" r="2.53257" fill="#263CAB" fill-opacity="0.4"/>
<circle cx="121.057" cy="2.53257" r="2.53257" fill="#263CAB" fill-opacity="0.4"/>
<circle cx="121.057" cy="11.6498" r="2.53257" fill="#263CAB" fill-opacity="0.4"/>
<circle cx="121.057" cy="20.7672" r="2.53257" fill="#263CAB" fill-opacity="0.4"/>
<circle cx="121.057" cy="29.8844" r="2.53257" fill="#263CAB" fill-opacity="0.4"/>
<circle cx="121.057" cy="39.0016" r="2.53257" fill="#263CAB" fill-opacity="0.4"/>
<circle cx="121.057" cy="48.119" r="2.53257" fill="#263CAB" fill-opacity="0.4"/>
<circle cx="121.057" cy="57.2362" r="2.53257" fill="#263CAB" fill-opacity="0.4"/>
<circle cx="121.057" cy="66.3534" r="2.53257" fill="#263CAB" fill-opacity="0.4"/>
<circle cx="130.174" cy="2.53257" r="2.53257" fill="#263CAB" fill-opacity="0.4"/>
<circle cx="130.174" cy="11.6498" r="2.53257" fill="#263CAB" fill-opacity="0.4"/>
<circle cx="130.174" cy="20.7672" r="2.53257" fill="#263CAB" fill-opacity="0.4"/>
<circle cx="130.174" cy="29.8844" r="2.53257" fill="#263CAB" fill-opacity="0.4"/>
<circle cx="130.174" cy="39.0016" r="2.53257" fill="#263CAB" fill-opacity="0.4"/>
<circle cx="130.174" cy="48.119" r="2.53257" fill="#263CAB" fill-opacity="0.4"/>
<circle cx="130.174" cy="57.2362" r="2.53257" fill="#263CAB" fill-opacity="0.4"/>
<circle cx="130.174" cy="66.3534" r="2.53257" fill="#263CAB" fill-opacity="0.4"/>
<circle cx="139.292" cy="2.53257" r="2.53257" fill="#263CAB" fill-opacity="0.4"/>
<circle cx="139.292" cy="11.6498" r="2.53257" fill="#263CAB" fill-opacity="0.4"/>
<circle cx="139.292" cy="20.7672" r="2.53257" fill="#263CAB" fill-opacity="0.4"/>
<circle cx="139.292" cy="29.8844" r="2.53257" fill="#263CAB" fill-opacity="0.4"/>
<circle cx="139.292" cy="39.0016" r="2.53257" fill="#263CAB" fill-opacity="0.4"/>
<circle cx="139.292" cy="48.119" r="2.53257" fill="#263CAB" fill-opacity="0.4"/>
<circle cx="139.292" cy="57.2362" r="2.53257" fill="#263CAB" fill-opacity="0.4"/>
<circle cx="139.292" cy="66.3534" r="2.53257" fill="#263CAB" fill-opacity="0.4"/>
<circle cx="2.53404" cy="2.53257" r="2.53257" fill="#263CAB" fill-opacity="0.4"/>
<circle cx="2.53282" cy="11.6498" r="2.53257" fill="#263CAB" fill-opacity="0.4"/>
<circle cx="2.53282" cy="20.7672" r="2.53257" fill="#263CAB" fill-opacity="0.4"/>
<circle cx="2.53282" cy="29.8844" r="2.53257" fill="#263CAB" fill-opacity="0.4"/>
<circle cx="2.53282" cy="39.0016" r="2.53257" fill="#263CAB" fill-opacity="0.4"/>
<circle cx="2.53282" cy="48.119" r="2.53257" fill="#263CAB" fill-opacity="0.4"/>
<circle cx="2.53282" cy="57.2362" r="2.53257" fill="#263CAB" fill-opacity="0.4"/>
<circle cx="2.53282" cy="66.3534" r="2.53257" fill="#263CAB" fill-opacity="0.4"/>
<circle cx="11.65" cy="2.53257" r="2.53257" fill="#263CAB" fill-opacity="0.4"/>
<circle cx="11.65" cy="11.6498" r="2.53257" fill="#263CAB" fill-opacity="0.4"/>
<circle cx="11.65" cy="20.7672" r="2.53257" fill="#263CAB" fill-opacity="0.4"/>
<circle cx="11.65" cy="29.8844" r="2.53257" fill="#263CAB" fill-opacity="0.4"/>
<circle cx="11.65" cy="39.0016" r="2.53257" fill="#263CAB" fill-opacity="0.4"/>
<circle cx="11.65" cy="48.119" r="2.53257" fill="#263CAB" fill-opacity="0.4"/>
<circle cx="11.65" cy="57.2362" r="2.53257" fill="#263CAB" fill-opacity="0.4"/>
<circle cx="11.65" cy="66.3534" r="2.53257" fill="#263CAB" fill-opacity="0.4"/>
<circle cx="20.7672" cy="2.53257" r="2.53257" fill="#263CAB" fill-opacity="0.4"/>
<circle cx="20.7672" cy="11.6498" r="2.53257" fill="#263CAB" fill-opacity="0.4"/>
<circle cx="20.7672" cy="20.7672" r="2.53257" fill="#263CAB" fill-opacity="0.4"/>
<circle cx="20.7672" cy="29.8844" r="2.53257" fill="#263CAB" fill-opacity="0.4"/>
<circle cx="20.7672" cy="39.0016" r="2.53257" fill="#263CAB" fill-opacity="0.4"/>
<circle cx="20.7672" cy="48.119" r="2.53257" fill="#263CAB" fill-opacity="0.4"/>
<circle cx="20.7672" cy="57.2362" r="2.53257" fill="#263CAB" fill-opacity="0.4"/>
<circle cx="20.7672" cy="66.3534" r="2.53257" fill="#263CAB" fill-opacity="0.4"/>
<circle cx="29.8846" cy="2.53257" r="2.53257" fill="#263CAB" fill-opacity="0.4"/>
<circle cx="29.8846" cy="11.6498" r="2.53257" fill="#263CAB" fill-opacity="0.4"/>
<circle cx="29.8846" cy="20.7672" r="2.53257" fill="#263CAB" fill-opacity="0.4"/>
<circle cx="29.8846" cy="29.8844" r="2.53257" fill="#263CAB" fill-opacity="0.4"/>
<circle cx="29.8846" cy="39.0016" r="2.53257" fill="#263CAB" fill-opacity="0.4"/>
<circle cx="29.8846" cy="48.119" r="2.53257" fill="#263CAB" fill-opacity="0.4"/>
<circle cx="29.8846" cy="57.2362" r="2.53257" fill="#263CAB" fill-opacity="0.4"/>
<circle cx="29.8846" cy="66.3534" r="2.53257" fill="#263CAB" fill-opacity="0.4"/>
<circle cx="39.0018" cy="2.53257" r="2.53257" fill="#263CAB" fill-opacity="0.4"/>
<circle cx="39.0018" cy="11.6498" r="2.53257" fill="#263CAB" fill-opacity="0.4"/>
<circle cx="39.0018" cy="20.7672" r="2.53257" fill="#263CAB" fill-opacity="0.4"/>
<circle cx="39.0018" cy="29.8844" r="2.53257" fill="#263CAB" fill-opacity="0.4"/>
<circle cx="39.0018" cy="39.0016" r="2.53257" fill="#263CAB" fill-opacity="0.4"/>
<circle cx="39.0018" cy="48.119" r="2.53257" fill="#263CAB" fill-opacity="0.4"/>
<circle cx="39.0018" cy="57.2362" r="2.53257" fill="#263CAB" fill-opacity="0.4"/>
<circle cx="39.0018" cy="66.3534" r="2.53257" fill="#263CAB" fill-opacity="0.4"/>
<circle cx="48.119" cy="2.53257" r="2.53257" fill="#263CAB" fill-opacity="0.4"/>
<circle cx="48.119" cy="11.6498" r="2.53257" fill="#263CAB" fill-opacity="0.4"/>
<circle cx="48.119" cy="20.7672" r="2.53257" fill="#263CAB" fill-opacity="0.4"/>
<circle cx="48.119" cy="29.8844" r="2.53257" fill="#263CAB" fill-opacity="0.4"/>
<circle cx="48.119" cy="39.0016" r="2.53257" fill="#263CAB" fill-opacity="0.4"/>
<circle cx="48.119" cy="48.119" r="2.53257" fill="#263CAB" fill-opacity="0.4"/>
<circle cx="48.119" cy="57.2362" r="2.53257" fill="#263CAB" fill-opacity="0.4"/>
<circle cx="48.119" cy="66.3534" r="2.53257" fill="#263CAB" fill-opacity="0.4"/>
<circle cx="57.2364" cy="2.53257" r="2.53257" fill="#263CAB" fill-opacity="0.4"/>
<circle cx="57.2364" cy="11.6498" r="2.53257" fill="#263CAB" fill-opacity="0.4"/>
<circle cx="57.2364" cy="20.7672" r="2.53257" fill="#263CAB" fill-opacity="0.4"/>
<circle cx="57.2364" cy="29.8844" r="2.53257" fill="#263CAB" fill-opacity="0.4"/>
<circle cx="57.2364" cy="39.0016" r="2.53257" fill="#263CAB" fill-opacity="0.4"/>
<circle cx="57.2364" cy="48.119" r="2.53257" fill="#263CAB" fill-opacity="0.4"/>
<circle cx="57.2364" cy="57.2362" r="2.53257" fill="#263CAB" fill-opacity="0.4"/>
<circle cx="57.2364" cy="66.3534" r="2.53257" fill="#263CAB" fill-opacity="0.4"/>
<circle cx="66.3536" cy="2.53257" r="2.53257" fill="#263CAB" fill-opacity="0.4"/>
<circle cx="66.3536" cy="11.6498" r="2.53257" fill="#263CAB" fill-opacity="0.4"/>
<circle cx="66.3536" cy="20.7672" r="2.53257" fill="#263CAB" fill-opacity="0.4"/>
<circle cx="66.3536" cy="29.8844" r="2.53257" fill="#263CAB" fill-opacity="0.4"/>
<circle cx="66.3536" cy="39.0016" r="2.53257" fill="#263CAB" fill-opacity="0.4"/>
<circle cx="66.3536" cy="48.119" r="2.53257" fill="#263CAB" fill-opacity="0.4"/>
<circle cx="66.3536" cy="57.2362" r="2.53257" fill="#263CAB" fill-opacity="0.4"/>
<circle cx="66.3536" cy="66.3534" r="2.53257" fill="#263CAB" fill-opacity="0.4"/>
<circle cx="75.4708" cy="75.4718" r="2.53257" fill="#263CAB" fill-opacity="0.4"/>
<circle cx="75.4708" cy="84.588" r="2.53257" fill="#263CAB" fill-opacity="0.4"/>
<circle cx="75.4708" cy="93.7054" r="2.53257" fill="#263CAB" fill-opacity="0.4"/>
<circle cx="75.4708" cy="102.823" r="2.53257" fill="#263CAB" fill-opacity="0.4"/>
<circle cx="75.4708" cy="111.94" r="2.53257" fill="#263CAB" fill-opacity="0.4"/>
<circle cx="75.4708" cy="121.057" r="2.53257" fill="#263CAB" fill-opacity="0.4"/>
<circle cx="75.4708" cy="130.174" r="2.53257" fill="#263CAB" fill-opacity="0.4"/>
<circle cx="75.4708" cy="139.292" r="2.53257" fill="#263CAB" fill-opacity="0.4"/>
<circle cx="84.588" cy="75.4708" r="2.53257" fill="#263CAB" fill-opacity="0.4"/>
<circle cx="84.588" cy="84.588" r="2.53257" fill="#263CAB" fill-opacity="0.4"/>
<circle cx="84.588" cy="93.7054" r="2.53257" fill="#263CAB" fill-opacity="0.4"/>
<circle cx="84.588" cy="102.823" r="2.53257" fill="#263CAB" fill-opacity="0.4"/>
<circle cx="84.588" cy="111.94" r="2.53257" fill="#263CAB" fill-opacity="0.4"/>
<circle cx="84.588" cy="121.057" r="2.53257" fill="#263CAB" fill-opacity="0.4"/>
<circle cx="84.5882" cy="130.174" r="2.53257" fill="#263CAB" fill-opacity="0.4"/>
<circle cx="84.5882" cy="139.292" r="2.53257" fill="#263CAB" fill-opacity="0.4"/>
<circle cx="93.7057" cy="75.4708" r="2.53257" fill="#263CAB" fill-opacity="0.4"/>
<circle cx="93.7057" cy="84.588" r="2.53257" fill="#263CAB" fill-opacity="0.4"/>
<circle cx="93.7057" cy="93.7054" r="2.53257" fill="#263CAB" fill-opacity="0.4"/>
<circle cx="93.7057" cy="102.823" r="2.53257" fill="#263CAB" fill-opacity="0.4"/>
<circle cx="93.7057" cy="111.94" r="2.53257" fill="#263CAB" fill-opacity="0.4"/>
<circle cx="93.7057" cy="121.057" r="2.53257" fill="#263CAB" fill-opacity="0.4"/>
<circle cx="93.7057" cy="130.174" r="2.53257" fill="#263CAB" fill-opacity="0.4"/>
<circle cx="93.7057" cy="139.292" r="2.53257" fill="#263CAB" fill-opacity="0.4"/>
<circle cx="102.823" cy="75.4708" r="2.53257" fill="#263CAB" fill-opacity="0.4"/>
<circle cx="102.823" cy="84.588" r="2.53257" fill="#263CAB" fill-opacity="0.4"/>
<circle cx="102.823" cy="93.7054" r="2.53257" fill="#263CAB" fill-opacity="0.4"/>
<circle cx="102.823" cy="102.823" r="2.53257" fill="#263CAB" fill-opacity="0.4"/>
<circle cx="102.823" cy="111.94" r="2.53257" fill="#263CAB" fill-opacity="0.4"/>
<circle cx="102.823" cy="121.057" r="2.53257" fill="#263CAB" fill-opacity="0.4"/>
<circle cx="102.823" cy="130.174" r="2.53257" fill="#263CAB" fill-opacity="0.4"/>
<circle cx="102.823" cy="139.292" r="2.53257" fill="#263CAB" fill-opacity="0.4"/>
<circle cx="111.94" cy="75.4708" r="2.53257" fill="#263CAB" fill-opacity="0.4"/>
<circle cx="111.94" cy="84.588" r="2.53257" fill="#263CAB" fill-opacity="0.4"/>
<circle cx="111.94" cy="93.7054" r="2.53257" fill="#263CAB" fill-opacity="0.4"/>
<circle cx="111.94" cy="102.823" r="2.53257" fill="#263CAB" fill-opacity="0.4"/>
<circle cx="111.94" cy="111.94" r="2.53257" fill="#263CAB" fill-opacity="0.4"/>
<circle cx="111.94" cy="121.057" r="2.53257" fill="#263CAB" fill-opacity="0.4"/>
<circle cx="111.94" cy="130.174" r="2.53257" fill="#263CAB" fill-opacity="0.4"/>
<circle cx="111.94" cy="139.292" r="2.53257" fill="#263CAB" fill-opacity="0.4"/>
<circle cx="121.057" cy="75.4708" r="2.53257" fill="#263CAB" fill-opacity="0.4"/>
<circle cx="121.057" cy="84.588" r="2.53257" fill="#263CAB" fill-opacity="0.4"/>
<circle cx="121.057" cy="93.7054" r="2.53257" fill="#263CAB" fill-opacity="0.4"/>
<circle cx="121.057" cy="102.823" r="2.53257" fill="#263CAB" fill-opacity="0.4"/>
<circle cx="121.057" cy="111.94" r="2.53257" fill="#263CAB" fill-opacity="0.4"/>
<circle cx="121.057" cy="121.057" r="2.53257" fill="#263CAB" fill-opacity="0.4"/>
<circle cx="121.057" cy="130.174" r="2.53257" fill="#263CAB" fill-opacity="0.4"/>
<circle cx="121.057" cy="139.292" r="2.53257" fill="#263CAB" fill-opacity="0.4"/>
<circle cx="130.174" cy="75.4708" r="2.53257" fill="#263CAB" fill-opacity="0.4"/>
<circle cx="130.174" cy="84.588" r="2.53257" fill="#263CAB" fill-opacity="0.4"/>
<circle cx="130.174" cy="93.7054" r="2.53257" fill="#263CAB" fill-opacity="0.4"/>
<circle cx="130.174" cy="102.823" r="2.53257" fill="#263CAB" fill-opacity="0.4"/>
<circle cx="130.174" cy="111.94" r="2.53257" fill="#263CAB" fill-opacity="0.4"/>
<circle cx="130.174" cy="121.057" r="2.53257" fill="#263CAB" fill-opacity="0.4"/>
<circle cx="130.174" cy="130.174" r="2.53257" fill="#263CAB" fill-opacity="0.4"/>
<circle cx="130.174" cy="139.292" r="2.53257" fill="#263CAB" fill-opacity="0.4"/>
<circle cx="139.292" cy="75.4708" r="2.53257" fill="#263CAB" fill-opacity="0.4"/>
<circle cx="139.292" cy="84.588" r="2.53257" fill="#263CAB" fill-opacity="0.4"/>
<circle cx="139.292" cy="93.7054" r="2.53257" fill="#263CAB" fill-opacity="0.4"/>
<circle cx="139.292" cy="102.823" r="2.53257" fill="#263CAB" fill-opacity="0.4"/>
<circle cx="139.292" cy="111.94" r="2.53257" fill="#263CAB" fill-opacity="0.4"/>
<circle cx="139.292" cy="121.057" r="2.53257" fill="#263CAB" fill-opacity="0.4"/>
<circle cx="139.292" cy="130.174" r="2.53257" fill="#263CAB" fill-opacity="0.4"/>
<circle cx="139.292" cy="139.292" r="2.53257" fill="#263CAB" fill-opacity="0.4"/>
<circle cx="2.53355" cy="75.4713" r="2.53257" fill="#263CAB" fill-opacity="0.4"/>
<circle cx="2.53257" cy="84.588" r="2.53257" fill="#263CAB" fill-opacity="0.4"/>
<circle cx="2.53257" cy="93.7054" r="2.53257" fill="#263CAB" fill-opacity="0.4"/>
<circle cx="2.53257" cy="102.822" r="2.53257" fill="#263CAB" fill-opacity="0.4"/>
<circle cx="2.53257" cy="111.94" r="2.53257" fill="#263CAB" fill-opacity="0.4"/>
<circle cx="2.53257" cy="121.057" r="2.53257" fill="#263CAB" fill-opacity="0.4"/>
<circle cx="2.53257" cy="130.174" r="2.53257" fill="#263CAB" fill-opacity="0.4"/>
<circle cx="2.53257" cy="139.292" r="2.53257" fill="#263CAB" fill-opacity="0.4"/>
<circle cx="11.6498" cy="75.4708" r="2.53257" fill="#263CAB" fill-opacity="0.4"/>
<circle cx="11.6498" cy="84.588" r="2.53257" fill="#263CAB" fill-opacity="0.4"/>
<circle cx="11.6498" cy="93.7054" r="2.53257" fill="#263CAB" fill-opacity="0.4"/>
<circle cx="11.6498" cy="102.822" r="2.53257" fill="#263CAB" fill-opacity="0.4"/>
<circle cx="11.6498" cy="111.94" r="2.53257" fill="#263CAB" fill-opacity="0.4"/>
<circle cx="11.6498" cy="121.057" r="2.53257" fill="#263CAB" fill-opacity="0.4"/>
<circle cx="11.6498" cy="130.174" r="2.53257" fill="#263CAB" fill-opacity="0.4"/>
<circle cx="11.6498" cy="139.292" r="2.53257" fill="#263CAB" fill-opacity="0.4"/>
<circle cx="20.7674" cy="75.4708" r="2.53257" fill="#263CAB" fill-opacity="0.4"/>
<circle cx="20.7674" cy="84.588" r="2.53257" fill="#263CAB" fill-opacity="0.4"/>
<circle cx="20.7674" cy="93.7054" r="2.53257" fill="#263CAB" fill-opacity="0.4"/>
<circle cx="20.7674" cy="102.822" r="2.53257" fill="#263CAB" fill-opacity="0.4"/>
<circle cx="20.7674" cy="111.94" r="2.53257" fill="#263CAB" fill-opacity="0.4"/>
<circle cx="20.7674" cy="121.057" r="2.53257" fill="#263CAB" fill-opacity="0.4"/>
<circle cx="20.7672" cy="130.174" r="2.53257" fill="#263CAB" fill-opacity="0.4"/>
<circle cx="20.7672" cy="139.292" r="2.53257" fill="#263CAB" fill-opacity="0.4"/>
<circle cx="29.8844" cy="75.4708" r="2.53257" fill="#263CAB" fill-opacity="0.4"/>
<circle cx="29.8844" cy="84.588" r="2.53257" fill="#263CAB" fill-opacity="0.4"/>
<circle cx="29.8844" cy="93.7054" r="2.53257" fill="#263CAB" fill-opacity="0.4"/>
<circle cx="29.8844" cy="102.822" r="2.53257" fill="#263CAB" fill-opacity="0.4"/>
<circle cx="29.8844" cy="111.94" r="2.53257" fill="#263CAB" fill-opacity="0.4"/>
<circle cx="29.8844" cy="121.057" r="2.53257" fill="#263CAB" fill-opacity="0.4"/>
<circle cx="29.8844" cy="130.174" r="2.53257" fill="#263CAB" fill-opacity="0.4"/>
<circle cx="29.8844" cy="139.292" r="2.53257" fill="#263CAB" fill-opacity="0.4"/>
<circle cx="39.0016" cy="75.4708" r="2.53257" fill="#263CAB" fill-opacity="0.4"/>
<circle cx="39.0016" cy="84.5882" r="2.53257" fill="#263CAB" fill-opacity="0.4"/>
<circle cx="39.0016" cy="93.7054" r="2.53257" fill="#263CAB" fill-opacity="0.4"/>
<circle cx="39.0016" cy="102.823" r="2.53257" fill="#263CAB" fill-opacity="0.4"/>
<circle cx="39.0016" cy="111.94" r="2.53257" fill="#263CAB" fill-opacity="0.4"/>
<circle cx="39.0016" cy="121.057" r="2.53257" fill="#263CAB" fill-opacity="0.4"/>
<circle cx="39.0016" cy="130.174" r="2.53257" fill="#263CAB" fill-opacity="0.4"/>
<circle cx="39.0016" cy="139.292" r="2.53257" fill="#263CAB" fill-opacity="0.4"/>
<circle cx="48.119" cy="75.4708" r="2.53257" fill="#263CAB" fill-opacity="0.4"/>
<circle cx="48.119" cy="84.5882" r="2.53257" fill="#263CAB" fill-opacity="0.4"/>
<circle cx="48.119" cy="93.7054" r="2.53257" fill="#263CAB" fill-opacity="0.4"/>
<circle cx="48.119" cy="102.823" r="2.53257" fill="#263CAB" fill-opacity="0.4"/>
<circle cx="48.119" cy="111.94" r="2.53257" fill="#263CAB" fill-opacity="0.4"/>
<circle cx="48.119" cy="121.057" r="2.53257" fill="#263CAB" fill-opacity="0.4"/>
<circle cx="48.1188" cy="130.174" r="2.53257" fill="#263CAB" fill-opacity="0.4"/>
<circle cx="48.1188" cy="139.292" r="2.53257" fill="#263CAB" fill-opacity="0.4"/>
<circle cx="57.2362" cy="75.4708" r="2.53257" fill="#263CAB" fill-opacity="0.4"/>
<circle cx="57.2362" cy="84.5882" r="2.53257" fill="#263CAB" fill-opacity="0.4"/>
<circle cx="57.2362" cy="93.7054" r="2.53257" fill="#263CAB" fill-opacity="0.4"/>
<circle cx="57.2362" cy="102.823" r="2.53257" fill="#263CAB" fill-opacity="0.4"/>
<circle cx="57.2362" cy="111.94" r="2.53257" fill="#263CAB" fill-opacity="0.4"/>
<circle cx="57.2362" cy="121.057" r="2.53257" fill="#263CAB" fill-opacity="0.4"/>
<circle cx="57.2362" cy="130.174" r="2.53257" fill="#263CAB" fill-opacity="0.4"/>
<circle cx="57.2362" cy="139.292" r="2.53257" fill="#263CAB" fill-opacity="0.4"/>
<circle cx="66.3534" cy="75.4708" r="2.53257" fill="#263CAB" fill-opacity="0.4"/>
<circle cx="66.3534" cy="84.5882" r="2.53257" fill="#263CAB" fill-opacity="0.4"/>
<circle cx="66.3534" cy="93.7054" r="2.53257" fill="#263CAB" fill-opacity="0.4"/>
<circle cx="66.3534" cy="102.823" r="2.53257" fill="#263CAB" fill-opacity="0.4"/>
<circle cx="66.3534" cy="111.94" r="2.53257" fill="#263CAB" fill-opacity="0.4"/>
<circle cx="66.3534" cy="121.057" r="2.53257" fill="#263CAB" fill-opacity="0.4"/>
<circle cx="66.3534" cy="130.174" r="2.53257" fill="#263CAB" fill-opacity="0.4"/>
<circle cx="66.3534" cy="139.292" r="2.53257" fill="#263CAB" fill-opacity="0.4"/>
</svg>
