<svg width="117" height="33" viewBox="0 0 117 33" fill="none" xmlns="http://www.w3.org/2000/svg">
<path d="M7.824 9.52H2.96L2.064 12H0.528L4.56 0.912H6.24L10.256 12H8.72L7.824 9.52ZM7.408 8.336L5.392 2.704L3.376 8.336H7.408ZM13.4693 10.816H17.3733V12H12.0133V0.848H13.4693V10.816ZM20.3755 2.032V5.76H24.4395V6.96H20.3755V10.8H24.9195V12H18.9195V0.832H24.9195V2.032H20.3755ZM31.6826 6.432L35.1066 12H33.4586L30.7866 7.648L28.2426 12H26.6266L30.0346 6.432L26.6106 0.848H28.2426L30.9306 5.216L33.4906 0.848H35.1226L31.6826 6.432ZM45.0538 12.112C44.2751 12.112 43.5711 11.9787 42.9418 11.712C42.3231 11.4453 41.8324 11.0613 41.4698 10.56C41.1071 10.0587 40.9204 9.46667 40.9098 8.784H43.3098C43.3418 9.24267 43.5018 9.60533 43.7898 9.872C44.0884 10.1387 44.4938 10.272 45.0058 10.272C45.5284 10.272 45.9391 10.1493 46.2378 9.904C46.5364 9.648 46.6858 9.31733 46.6858 8.912C46.6858 8.58133 46.5844 8.30933 46.3818 8.096C46.1791 7.88267 45.9231 7.71733 45.6138 7.6C45.3151 7.472 44.8991 7.33333 44.3658 7.184C43.6404 6.97067 43.0484 6.76267 42.5898 6.56C42.1418 6.34667 41.7524 6.032 41.4218 5.616C41.1018 5.18933 40.9418 4.624 40.9418 3.92C40.9418 3.25867 41.1071 2.68267 41.4378 2.192C41.7684 1.70133 42.2324 1.328 42.8298 1.072C43.4271 0.805333 44.1098 0.672 44.8778 0.672C46.0298 0.672 46.9631 0.954666 47.6778 1.52C48.4031 2.07467 48.8031 2.85333 48.8778 3.856H46.4138C46.3924 3.472 46.2271 3.15733 45.9178 2.912C45.6191 2.656 45.2191 2.528 44.7178 2.528C44.2804 2.528 43.9284 2.64 43.6618 2.864C43.4058 3.088 43.2778 3.41333 43.2778 3.84C43.2778 4.13867 43.3738 4.38933 43.5658 4.592C43.7684 4.784 44.0138 4.944 44.3018 5.072C44.6004 5.18933 45.0164 5.328 45.5498 5.488C46.2751 5.70133 46.8671 5.91467 47.3258 6.128C47.7844 6.34133 48.1791 6.66133 48.5098 7.088C48.8404 7.51467 49.0058 8.07467 49.0058 8.768C49.0058 9.36533 48.8511 9.92 48.5417 10.432C48.2324 10.944 47.7791 11.3547 47.1818 11.664C46.5844 11.9627 45.8751 12.112 45.0538 12.112ZM53.1558 0.832V7.744C53.1558 8.50133 53.3531 9.08267 53.7478 9.488C54.1424 9.88267 54.6971 10.08 55.4118 10.08C56.1371 10.08 56.6971 9.88267 57.0918 9.488C57.4864 9.08267 57.6838 8.50133 57.6838 7.744V0.832H59.9398V7.728C59.9398 8.67733 59.7318 9.48267 59.3158 10.144C58.9104 10.7947 58.3611 11.2853 57.6678 11.616C56.9851 11.9467 56.2224 12.112 55.3798 12.112C54.5478 12.112 53.7904 11.9467 53.1078 11.616C52.4358 11.2853 51.9024 10.7947 51.5078 10.144C51.1131 9.48267 50.9158 8.67733 50.9158 7.728V0.832H53.1558ZM74.28 0.832V12H72.04V4.736L69.048 12H67.352L64.344 4.736V12H62.104V0.832H64.648L68.2 9.136L71.752 0.832H74.28ZM81.6786 12.112C80.6333 12.112 79.6733 11.8667 78.7986 11.376C77.924 10.8853 77.2306 10.208 76.7186 9.344C76.2066 8.46933 75.9506 7.48267 75.9506 6.384C75.9506 5.296 76.2066 4.32 76.7186 3.456C77.2306 2.58133 77.924 1.89867 78.7986 1.408C79.6733 0.917333 80.6333 0.672 81.6786 0.672C82.7346 0.672 83.6946 0.917333 84.5586 1.408C85.4333 1.89867 86.1213 2.58133 86.6226 3.456C87.1346 4.32 87.3906 5.296 87.3906 6.384C87.3906 7.48267 87.1346 8.46933 86.6226 9.344C86.1213 10.208 85.4333 10.8853 84.5586 11.376C83.684 11.8667 82.724 12.112 81.6786 12.112ZM81.6786 10.112C82.3506 10.112 82.9426 9.96267 83.4546 9.664C83.9666 9.35467 84.3666 8.91733 84.6546 8.352C84.9426 7.78667 85.0866 7.13067 85.0866 6.384C85.0866 5.63733 84.9426 4.98667 84.6546 4.432C84.3666 3.86667 83.9666 3.43467 83.4546 3.136C82.9426 2.83733 82.3506 2.688 81.6786 2.688C81.0066 2.688 80.4093 2.83733 79.8866 3.136C79.3746 3.43467 78.9746 3.86667 78.6866 4.432C78.3986 4.98667 78.2546 5.63733 78.2546 6.384C78.2546 7.13067 78.3986 7.78667 78.6866 8.352C78.9746 8.91733 79.3746 9.35467 79.8866 9.664C80.4093 9.96267 81.0066 10.112 81.6786 10.112ZM92.9131 12.112C92.1345 12.112 91.4305 11.9787 90.8011 11.712C90.1825 11.4453 89.6918 11.0613 89.3291 10.56C88.9665 10.0587 88.7798 9.46667 88.7691 8.784H91.1691C91.2011 9.24267 91.3611 9.60533 91.6491 9.872C91.9478 10.1387 92.3531 10.272 92.8651 10.272C93.3878 10.272 93.7985 10.1493 94.0971 9.904C94.3958 9.648 94.5451 9.31733 94.5451 8.912C94.5451 8.58133 94.4438 8.30933 94.2411 8.096C94.0385 7.88267 93.7825 7.71733 93.4731 7.6C93.1745 7.472 92.7585 7.33333 92.2251 7.184C91.4998 6.97067 90.9078 6.76267 90.4491 6.56C90.0011 6.34667 89.6118 6.032 89.2811 5.616C88.9611 5.18933 88.8011 4.624 88.8011 3.92C88.8011 3.25867 88.9665 2.68267 89.2971 2.192C89.6278 1.70133 90.0918 1.328 90.6891 1.072C91.2865 0.805333 91.9691 0.672 92.7371 0.672C93.8891 0.672 94.8225 0.954666 95.5371 1.52C96.2625 2.07467 96.6625 2.85333 96.7371 3.856H94.2731C94.2518 3.472 94.0865 3.15733 93.7771 2.912C93.4785 2.656 93.0785 2.528 92.5771 2.528C92.1398 2.528 91.7878 2.64 91.5211 2.864C91.2651 3.088 91.1371 3.41333 91.1371 3.84C91.1371 4.13867 91.2331 4.38933 91.4251 4.592C91.6278 4.784 91.8731 4.944 92.1611 5.072C92.4598 5.18933 92.8758 5.328 93.4091 5.488C94.1345 5.70133 94.7265 5.91467 95.1851 6.128C95.6438 6.34133 96.0385 6.66133 96.3691 7.088C96.6998 7.51467 96.8651 8.07467 96.8651 8.768C96.8651 9.36533 96.7105 9.92 96.4011 10.432C96.0918 10.944 95.6385 11.3547 95.0411 11.664C94.4438 11.9627 93.7345 12.112 92.9131 12.112ZM105.111 12L101.047 7.024V12H98.8071V0.832H101.047V5.84L105.111 0.832H107.815L103.207 6.368L107.943 12H105.111ZM111.657 0.832V12H109.417V0.832H111.657ZM1.22 32V17.8H6.68C8.25333 17.8 9.56667 18.12 10.62 18.76C11.6867 19.3867 12.4867 20.24 13.02 21.32C13.5667 22.3867 13.84 23.5733 13.84 24.88C13.84 26.32 13.54 27.5733 12.94 28.64C12.3533 29.7067 11.52 30.5333 10.44 31.12C9.37333 31.7067 8.12 32 6.68 32H1.22ZM9.88 24.88C9.88 23.7733 9.59333 22.8867 9.02 22.22C8.46 21.54 7.68 21.2 6.68 21.2H5.12V28.6H6.68C7.70667 28.6 8.49333 28.2467 9.04 27.54C9.6 26.8333 9.88 25.9467 9.88 24.88ZM25.6564 28.6V32H15.5364V17.8H25.4764V21.2H19.4364V23.2H24.5964V26.36H19.4364V28.6H25.6564ZM30.21 17.8L32.99 27.5L35.73 17.8H39.83L34.93 32H31.05L26.09 17.8H30.21ZM51.0275 28.6V32H40.9075V17.8H50.8475V21.2H44.8075V23.2H49.9675V26.36H44.8075V28.6H51.0275ZM52.8411 32V17.8H56.7411V28.6H63.1811V32H52.8411ZM70.7645 32.12C69.6845 32.12 68.7045 31.92 67.8245 31.52C66.9445 31.1067 66.1845 30.56 65.5445 29.88C64.9179 29.1867 64.4312 28.4133 64.0845 27.56C63.7512 26.6933 63.5845 25.8 63.5845 24.88C63.5845 23.9333 63.7645 23.0333 64.1245 22.18C64.4845 21.3267 64.9845 20.5667 65.6245 19.9C66.2779 19.22 67.0445 18.6867 67.9245 18.3C68.8179 17.9133 69.7912 17.72 70.8445 17.72C71.9245 17.72 72.9045 17.9267 73.7845 18.34C74.6645 18.74 75.4179 19.2867 76.0445 19.98C76.6712 20.6733 77.1512 21.4533 77.4845 22.32C77.8312 23.1733 78.0045 24.0533 78.0045 24.96C78.0045 25.8933 77.8245 26.7867 77.4645 27.64C77.1179 28.4933 76.6179 29.26 75.9645 29.94C75.3245 30.6067 74.5645 31.14 73.6845 31.54C72.8045 31.9267 71.8312 32.12 70.7645 32.12ZM67.5445 24.92C67.5445 25.5467 67.6579 26.1467 67.8845 26.72C68.1245 27.2933 68.4845 27.76 68.9645 28.12C69.4579 28.48 70.0712 28.66 70.8045 28.66C71.5645 28.66 72.1779 28.4733 72.6445 28.1C73.1245 27.7267 73.4779 27.2533 73.7045 26.68C73.9312 26.0933 74.0445 25.4933 74.0445 24.88C74.0445 24.24 73.9245 23.64 73.6845 23.08C73.4445 22.52 73.0845 22.0667 72.6045 21.72C72.1245 21.36 71.5179 21.18 70.7845 21.18C70.0379 21.18 69.4245 21.3667 68.9445 21.74C68.4645 22.1 68.1112 22.5667 67.8845 23.14C67.6579 23.7 67.5445 24.2933 67.5445 24.92ZM79.6575 32V17.8H85.7775C86.4708 17.8 87.1108 17.94 87.6975 18.22C88.2842 18.5 88.7908 18.88 89.2175 19.36C89.6442 19.8267 89.9708 20.3533 90.1975 20.94C90.4375 21.5267 90.5575 22.12 90.5575 22.72C90.5575 23.56 90.3575 24.3533 89.9575 25.1C89.5708 25.8467 89.0242 26.46 88.3175 26.94C87.6242 27.4067 86.8108 27.64 85.8775 27.64H83.5575V32H79.6575ZM83.5575 24.24H85.6175C85.8575 24.24 86.0775 24.1333 86.2775 23.92C86.4908 23.6933 86.5975 23.2933 86.5975 22.72C86.5975 22.1333 86.4775 21.7333 86.2375 21.52C85.9975 21.3067 85.7575 21.2 85.5175 21.2H83.5575V24.24ZM102.238 28.6V32H92.1184V17.8H102.058V21.2H96.0184V23.2H101.178V26.36H96.0184V28.6H102.238ZM104.052 32V17.8H110.572C111.265 17.8 111.905 17.94 112.492 18.22C113.079 18.5 113.585 18.88 114.012 19.36C114.439 19.8267 114.765 20.3533 114.992 20.94C115.232 21.5267 115.352 22.12 115.352 22.72C115.352 23.5333 115.172 24.3 114.812 25.02C114.452 25.74 113.952 26.3267 113.312 26.78L116.312 32H112.032L109.532 27.64H107.952V32H104.052ZM107.952 24.24H110.412C110.652 24.24 110.872 24.1067 111.072 23.84C111.285 23.5733 111.392 23.2 111.392 22.72C111.392 22.2267 111.272 21.8533 111.032 21.6C110.792 21.3333 110.552 21.2 110.312 21.2H107.952V24.24Z" fill="black"/>
</svg>
